<svg viewBox="0 0 500 500" xmlns="http://www.w3.org/2000/svg" >

  <path
    d="
      M 0 0  c 250 0, 250 500,  500 500
      L 400 500
      M 400 500 c  -250 -50, -250 -400, -400 -400
      L 0 0
      "
    fill="#5e5086" stroke="black"
  />
  <path
    d="
      M 100 0 c 200 0, 200 400, 400 400
      L 500 500
      M 500 500 c -250 0, -250 -500, -500 -500
      L 100 0
      "
    fill="#453a62"  stroke="black"
  />
  <rect
    x="0"
    y="404"
    width="96"
    height="96"
    fill="#8f4e8b"
  />
  <path
    d="M 4 396 l 96 0  l 46 -36 l -96 0"
    fill="#5e5086"
  />
  <path
    d="M 104 498 l 0 -96 l 46 -36 l 0 96"
    fill="#5e5086"
  />
</svg>
